<svg xml:space="preserve" style="max-height: 500px" viewBox="0 0 209.89852 153.70522388059703" y="0px" x="0px" xmlns:xlink="http://www.w3.org/1999/xlink" xmlns="http://www.w3.org/2000/svg" fill="#FFFF" id="Layer_1" version="1.1" width="209.89852" height="153.70522388059703">
<g>
	<g>
		<g>
			<g>
				<path d="M209.71,57.6c0.73-0.6-3.06-0.83-9.49-1.86c-6.41-1.05-15.5-2.86-25.3-6.48c-9.81-3.61-20.33-9.04-29.67-17.05&#10;&#9;&#9;&#9;&#9;&#9;C135.92,24.18,127.8,13.43,122.66,0c4.83,16.23,12.54,27.62,21.37,36c8.82,8.41,18.76,13.69,28.2,17.06&#10;&#9;&#9;&#9;&#9;&#9;c9.44,3.36,18.36,4.8,25.18,5.23C204.21,58.75,208.87,58.26,209.71,57.6z"/>
				<path d="M202.78,63.33c0.52-0.4-3.1-0.49-9.14-1.29c-6.02-0.83-14.5-2.34-23.63-5.46c-9.14-3.11-18.93-7.86-27.64-14.84&#10;&#9;&#9;&#9;&#9;&#9;c-8.7-7.02-16.29-16.43-21.17-27.97c4.51,15.02,11.68,25.3,19.87,32.76c8.18,7.5,17.41,12.03,26.18,14.79&#10;&#9;&#9;&#9;&#9;&#9;c8.78,2.75,17.11,3.7,23.56,3.74C197.22,65.1,201.72,64.28,202.78,63.33z"/>
				<path d="M195.81,69.46c0.3-0.01-3.17,0.26-8.84-0.12c-5.65-0.4-13.54-1.4-22.02-3.83c-8.49-2.42-17.57-6.28-25.67-12.06&#10;&#9;&#9;&#9;&#9;&#9;c-8.09-5.82-15.16-13.73-19.79-23.29c4.22,13.55,10.86,22.51,18.43,28.85C145.48,65.4,154,69,162.13,70.98&#10;&#9;&#9;&#9;&#9;&#9;c8.14,1.96,15.89,2.28,21.97,1.74C190.16,72.2,194.52,70.88,195.81,69.46z"/>
				<path d="M117.62,48.49c3.94,11.88,10.07,19.36,17.04,24.45c6.97,5.14,14.79,7.68,22.29,8.77c7.49,1.06,14.69,0.63,20.43-0.6&#10;&#9;&#9;&#9;&#9;&#9;c5.47-1.14,9.61-2.97,11.24-4.91c-0.81,0.51-3.88,1.08-8.37,1.26c-5.28,0.17-12.61-0.17-20.43-1.74&#10;&#9;&#9;&#9;&#9;&#9;c-7.85-1.6-16.26-4.43-23.75-8.88C128.6,62.31,122.02,56,117.62,48.49z"/>
				<path d="M115.7,68.05c3.68,10.05,9.29,15.96,15.67,19.7c6.35,3.77,13.49,5.23,20.36,5.34c6.91,0.09,13.52-1.14,18.9-3.11&#10;&#9;&#9;&#9;&#9;&#9;c4.79-1.71,8.6-3.97,10.56-6.37c-1.21,0.91-3.94,1.86-7.69,2.51c-4.92,0.86-11.66,1.28-18.9,0.63&#10;&#9;&#9;&#9;&#9;&#9;c-7.2-0.63-14.92-2.37-21.8-5.45C125.9,78.19,119.84,73.53,115.7,68.05z"/>
				<path d="M113.71,88.18c3.45,8.08,8.57,12.37,14.37,14.74c5.77,2.43,12.22,2.74,18.47,1.89c6.26-0.89,12.35-2.91,17.4-5.63&#10;&#9;&#9;&#9;&#9;&#9;c4.14-2.2,7.59-4.8,9.77-7.57c-1.37,1.26-3.78,2.54-6.94,3.63c-4.59,1.57-10.78,2.8-17.37,3.11&#10;&#9;&#9;&#9;&#9;&#9;c-6.61,0.31-13.62-0.29-19.94-1.94C123.2,94.67,117.62,91.67,113.71,88.18z"/>
				<path d="M111.79,108.15c3.19,6.11,7.85,8.77,13.03,9.8c5.21,1.06,10.98,0.29,16.62-1.49c5.64-1.77,11.14-4.57,15.87-7.97&#10;&#9;&#9;&#9;&#9;&#9;c3.52-2.48,6.55-5.28,8.8-8.22c-1.4,1.46-3.45,2.91-5.96,4.26c-4.3,2.28-9.91,4.28-15.9,5.57c-5.96,1.28-12.32,1.8-18.02,1.46&#10;&#9;&#9;&#9;&#9;&#9;C120.49,111.17,115.41,109.74,111.79,108.15z"/>
				<path d="M109.42,128.8c3,4.14,7.14,5.25,11.76,5c4.59-0.2,9.71-1.97,14.73-4.54c5.02-2.6,9.97-6.05,14.34-10&#10;&#9;&#9;&#9;&#9;&#9;c2.83-2.54,5.38-5.25,7.53-8.14c-1.27,1.43-2.9,2.86-4.72,4.23c-3.94,2.91-9.03,5.65-14.4,7.8c-5.34,2.17-11.01,3.71-16.13,4.63&#10;&#9;&#9;&#9;&#9;&#9;C117.4,128.65,112.8,128.71,109.42,128.8z"/>
				<path d="M107.48,147.31c2.53,2.39,6.09,2.31,10.04,1.16c3.92-1.09,8.32-3.42,12.7-6.37c4.44-2.98,8.85-6.62,12.97-10.73&#10;&#9;&#9;&#9;&#9;&#9;c2.1-2.13,4.14-4.34,6-6.68c-0.94,1.06-2.03,2.1-3.19,3.11c-3.66,3.2-8.2,6.26-12.9,8.85c-4.73,2.62-9.62,4.76-14.08,6.48&#10;&#9;&#9;&#9;&#9;&#9;C114.56,144.82,110.57,145.94,107.48,147.31z"/>
			</g>
		</g>
		<g>
			<g>
				<path d="M0.09,57.6c-0.73-0.6,3.06-0.83,9.49-1.86c6.41-1.05,15.5-2.86,25.3-6.48c9.81-3.61,20.33-9.04,29.67-17.05&#10;&#9;&#9;&#9;&#9;&#9;C73.88,24.18,81.99,13.43,87.13,0C82.3,16.23,74.59,27.62,65.77,36C56.95,44.41,47,49.69,37.57,53.06&#10;&#9;&#9;&#9;&#9;&#9;c-9.44,3.36-18.36,4.8-25.18,5.23C5.59,58.75,0.93,58.26,0.09,57.6z"/>
				<path d="M7.02,63.33c-0.52-0.4,3.1-0.49,9.14-1.29c6.02-0.83,14.5-2.34,23.63-5.46c9.14-3.11,18.93-7.86,27.64-14.84&#10;&#9;&#9;&#9;&#9;&#9;c8.7-7.02,16.29-16.43,21.17-27.97c-4.51,15.02-11.68,25.3-19.87,32.76c-8.18,7.5-17.41,12.03-26.18,14.79&#10;&#9;&#9;&#9;&#9;&#9;c-8.78,2.75-17.11,3.7-23.56,3.74C12.58,65.1,8.08,64.28,7.02,63.33z"/>
				<path d="M13.99,69.46c-0.3-0.01,3.17,0.26,8.84-0.12c5.65-0.4,13.54-1.4,22.02-3.83c8.49-2.42,17.57-6.28,25.67-12.06&#10;&#9;&#9;&#9;&#9;&#9;c8.09-5.82,15.16-13.73,19.79-23.29c-4.22,13.55-10.86,22.51-18.43,28.85C64.32,65.4,55.8,69,47.67,70.98&#10;&#9;&#9;&#9;&#9;&#9;c-8.14,1.96-15.89,2.28-21.97,1.74C19.64,72.2,15.28,70.88,13.99,69.46z"/>
				<path d="M92.18,48.49c-3.94,11.88-10.07,19.36-17.04,24.45c-6.97,5.14-14.79,7.68-22.29,8.77c-7.49,1.06-14.69,0.63-20.43-0.6&#10;&#9;&#9;&#9;&#9;&#9;c-5.47-1.14-9.61-2.97-11.24-4.91c0.81,0.51,3.88,1.08,8.37,1.26c5.28,0.17,12.61-0.17,20.43-1.74&#10;&#9;&#9;&#9;&#9;&#9;c7.85-1.6,16.26-4.43,23.75-8.88C81.2,62.31,87.78,56,92.18,48.49z"/>
				<path d="M94.1,68.05c-3.68,10.05-9.29,15.96-15.67,19.7c-6.35,3.77-13.49,5.23-20.36,5.34c-6.91,0.09-13.52-1.14-18.9-3.11&#10;&#9;&#9;&#9;&#9;&#9;c-4.79-1.71-8.6-3.97-10.56-6.37c1.21,0.91,3.94,1.86,7.69,2.51c4.92,0.86,11.66,1.28,18.9,0.63c7.2-0.63,14.92-2.37,21.8-5.45&#10;&#9;&#9;&#9;&#9;&#9;C83.9,78.19,89.96,73.53,94.1,68.05z"/>
				<path d="M96.08,88.18c-3.45,8.08-8.57,12.37-14.37,14.74c-5.77,2.43-12.22,2.74-18.47,1.89c-6.26-0.89-12.35-2.91-17.4-5.63&#10;&#9;&#9;&#9;&#9;&#9;c-4.14-2.2-7.59-4.8-9.77-7.57c1.37,1.26,3.78,2.54,6.94,3.63c4.59,1.57,10.78,2.8,17.37,3.11c6.61,0.31,13.62-0.29,19.94-1.94&#10;&#9;&#9;&#9;&#9;&#9;C86.6,94.67,92.18,91.67,96.08,88.18z"/>
				<path d="M98.01,108.15c-3.19,6.11-7.85,8.77-13.03,9.8c-5.21,1.06-10.98,0.29-16.62-1.49c-5.64-1.77-11.14-4.57-15.87-7.97&#10;&#9;&#9;&#9;&#9;&#9;c-3.52-2.48-6.55-5.28-8.8-8.22c1.4,1.46,3.45,2.91,5.96,4.26c4.3,2.28,9.91,4.28,15.9,5.57c5.96,1.28,12.32,1.8,18.02,1.46&#10;&#9;&#9;&#9;&#9;&#9;C89.31,111.17,94.39,109.74,98.01,108.15z"/>
				<path d="M100.38,128.8c-3,4.14-7.14,5.25-11.76,5c-4.59-0.2-9.71-1.97-14.73-4.54c-5.02-2.6-9.97-6.05-14.34-10&#10;&#9;&#9;&#9;&#9;&#9;c-2.83-2.54-5.38-5.25-7.53-8.14c1.27,1.43,2.9,2.86,4.72,4.23c3.94,2.91,9.03,5.65,14.4,7.8c5.34,2.17,11.01,3.71,16.13,4.63&#10;&#9;&#9;&#9;&#9;&#9;C92.4,128.65,96.99,128.71,100.38,128.8z"/>
				<path d="M102.32,147.31c-2.53,2.39-6.09,2.31-10.04,1.16c-3.92-1.09-8.32-3.42-12.7-6.37c-4.44-2.98-8.85-6.62-12.97-10.73&#10;&#9;&#9;&#9;&#9;&#9;c-2.1-2.13-4.14-4.34-6-6.68c0.94,1.06,2.03,2.1,3.19,3.11c3.66,3.2,8.2,6.26,12.9,8.85c4.73,2.62,9.62,4.76,14.08,6.48&#10;&#9;&#9;&#9;&#9;&#9;C95.24,144.82,99.22,145.94,102.32,147.31z"/>
			</g>
		</g>
	</g>
	<g>
		<path d="M256.07,51.81c-0.08,19.1-0.08,42.5,0,70.2l12.9,0.12v2.84c-4.9,0-9.79,0-14.68,0c-4.97,0-9.91,0-14.8,0v-2.84l12.55-0.12&#10;&#9;&#9;&#9;c-0.16-14.36-0.24-32.44-0.24-54.22c0-1.1,0.04-2.44,0.12-4.03c0.08-2.37,0.16-6.31,0.24-11.84c-1.66-0.24-3.71-0.36-6.16-0.36&#10;&#9;&#9;&#9;h-5.92v-3.2c13.26,0,22.06-0.12,26.4-0.36c1.81,6.39,8.01,25.61,18.59,57.65c4.58-12.81,11.13-32.03,19.65-57.65h26.28v3.08&#10;&#9;&#9;&#9;l-12.19,0.24l-0.12,70.67l12.31,0.12v2.84h-36.34v-2.84l13.14-0.12l0.12-70.32c-1.82,4.66-5.8,15.74-11.96,33.27&#10;&#9;&#9;&#9;c-6.71,18.94-11.33,32.28-13.85,40.01h-2.37c-2.45-8.44-6.63-21.62-12.55-39.54C263.49,74.23,259.78,63.02,256.07,51.81z"/>
		<path d="M371.73,122.01v-33.5c-3.24-5.92-6.47-11.88-9.71-17.88c-4.74-8.6-8.52-15.03-11.37-19.3l-9.71-0.12v-2.96&#10;&#9;&#9;&#9;c5.6,0,11.21,0,16.81,0c5.6,0,11.17,0,16.69,0v2.96l-10.65,0.12l17.64,32.08c4.1-7.02,10.06-17.72,17.88-32.08l-10.3-0.12v-2.96&#10;&#9;&#9;&#9;c4.34,0,8.68,0,13.02,0c4.26,0,8.56,0,12.9,0v2.96l-10.18,0.12l-21.78,36.58v34.09l13.14,0.12v2.84h-37.65v-2.84L371.73,122.01z"/>
		<path d="M452.83,86.5h-4.26l0.24,34.92h7.46c10.89,0,18.55-1.26,22.97-3.79c2.76-1.58,4.66-3.75,5.68-6.51&#10;&#9;&#9;&#9;c0.87-2.13,1.54-5.76,2.01-10.89H490l-0.83,9.71c-0.24,2.92-0.47,7.14-0.71,12.67c-0.08,1.42-0.63,2.25-1.66,2.49&#10;&#9;&#9;&#9;c0.39,0-0.51,0-2.72,0c0.31,0-1.54,0-5.56,0c-4.26-0.08-8.52-0.08-12.78,0c-5.92,0-10.18,0-12.79,0c-16.57,0-25.49,0-26.75,0&#10;&#9;&#9;&#9;v-2.96l11.36-0.47V51.58h-9.94v-3.2c1.89,0.08,9.94,0.12,24.15,0.12c4.81,0,8.92-0.04,12.31-0.12c7.97-0.16,15.07-0.43,21.31-0.83&#10;&#9;&#9;&#9;c-0.08,2.21-0.04,5.33,0.12,9.35l0.47,11.96h-3.2c-0.47-2.92-0.87-4.89-1.18-5.92c-0.63-2.29-1.5-4.1-2.6-5.45&#10;&#9;&#9;&#9;c-3.08-3.71-10.38-5.48-21.9-5.33l-8.29,0.12c0.08,3.39,0.04,13.65-0.12,30.78h3.91c4.66,0,7.87-0.89,9.65-2.66&#10;&#9;&#9;&#9;c1.78-1.78,2.9-5.46,3.37-11.07h2.96c-0.32,5.21-0.47,10.14-0.47,14.8c0,7.02,0.08,12.55,0.24,16.57h-3.08&#10;&#9;&#9;&#9;c-0.24-2.05-0.47-4.1-0.71-6.16c-0.39-2.52-1.18-4.42-2.37-5.68c-1.18-1.26-2.68-2.05-4.5-2.37H452.83z"/>
		<path d="M508.46,99.05h3.08c0.55,6.71,2.33,12.04,5.33,15.98c3.47,4.66,8.41,6.98,14.8,6.98c5.84,0,10.5-1.62,13.97-4.85&#10;&#9;&#9;&#9;c3.16-3,4.74-6.59,4.74-10.77c0-4.81-2.33-8.48-6.98-11.01c-1.5-0.79-5.96-2.25-13.38-4.38c-6.55-1.89-11.48-4.26-14.8-7.1&#10;&#9;&#9;&#9;c-4.26-3.71-6.39-8.56-6.39-14.56c0-6.23,2.09-11.5,6.27-15.8c4.18-4.3,9.35-6.45,15.51-6.45c5.45,0,10.73,1.94,15.86,5.8&#10;&#9;&#9;&#9;l3.08-2.37l2.01,0.12c-1.74,7.66-2.21,15.08-1.42,22.26h-2.84c-0.55-6.55-1.82-11.52-3.79-14.92c-2.76-4.66-7.14-6.98-13.14-6.98&#10;&#9;&#9;&#9;c-4.03,0-7.5,1.3-10.42,3.91c-2.92,2.6-4.38,5.92-4.38,9.94c0,3.79,1.46,6.71,4.38,8.76c1.97,1.34,5.37,2.68,10.18,4.03&#10;&#9;&#9;&#9;c9.07,2.53,15.27,4.93,18.59,7.22c5.37,3.79,8.05,9.47,8.05,17.05c0,6.79-2.37,12.53-7.1,17.23c-4.74,4.7-10.5,7.04-17.29,7.04&#10;&#9;&#9;&#9;c-6.31,0-12.59-2.25-18.82-6.75l-3.2,4.5l-2.49-0.71C508.9,116.49,509.09,108.44,508.46,99.05z"/>
	</g>
</g>
</svg>